<svg width="154" height="43" viewBox="0 0 154 43" fill="none" xmlns="http://www.w3.org/2000/svg">
<rect width="8" height="32" fill="white"/>
<rect y="8" width="8" height="32" transform="rotate(-90 0 8)" fill="white"/>
<rect x="52" y="40" width="8" height="32" transform="rotate(-180 52 40)" fill="white"/>
<rect x="52" y="32" width="8" height="32" transform="rotate(90 52 32)" fill="white"/>
<path d="M81.16 6.6L79.6 10.16C78.5067 9.76 77.4133 9.44 76.32 9.2C75.2533 8.96 74.2267 8.84 73.24 8.84C71.56 8.84 70.2133 9.18667 69.2 9.88C68.2133 10.5733 67.72 11.4533 67.72 12.52C67.72 13.4267 68.08 14.16 68.8 14.72C69.52 15.2533 70.4133 15.7467 71.48 16.2C72.5467 16.6267 73.7067 17.0667 74.96 17.52C76.2133 17.9467 77.3733 18.5067 78.44 19.2C79.5067 19.8933 80.4 20.7733 81.12 21.84C81.84 22.88 82.2 24.2267 82.2 25.88C82.2 27.16 81.96 28.32 81.48 29.36C81.0267 30.3733 80.3333 31.2533 79.4 32C78.4933 32.7467 77.3467 33.32 75.96 33.72C74.6 34.12 73 34.32 71.16 34.32C69.9867 34.32 68.92 34.24 67.96 34.08C67.0267 33.92 66.1733 33.72 65.4 33.48C64.6533 33.2133 63.9867 32.9333 63.4 32.64C62.84 32.3467 62.36 32.08 61.96 31.84L63.88 28.04C64.9467 28.6533 66.1333 29.1467 67.44 29.52C68.7467 29.8933 69.9333 30.08 71 30.08C71.5333 30.08 72.1867 30.0133 72.96 29.88C73.76 29.7467 74.52 29.52 75.24 29.2C75.96 28.8533 76.5733 28.4 77.08 27.84C77.6133 27.28 77.88 26.5733 77.88 25.72C77.88 24.9467 77.6667 24.2933 77.24 23.76C76.84 23.2 76.2933 22.72 75.6 22.32C74.9333 21.8933 74.16 21.52 73.28 21.2C72.4267 20.8533 71.5467 20.5067 70.64 20.16C69.7333 19.7867 68.84 19.4 67.96 19C67.1067 18.6 66.3333 18.12 65.64 17.56C64.9733 16.9733 64.4267 16.3067 64 15.56C63.6 14.7867 63.4 13.8667 63.4 12.8C63.4 11.8133 63.6 10.84 64 9.88C64.4 8.92 65 8.06666 65.8 7.32C66.6 6.57333 67.5867 5.97333 68.76 5.52C69.96 5.06667 71.3467 4.84 72.92 4.84C73.88 4.84 74.8133 4.92 75.72 5.08C76.6533 5.24 77.4933 5.42667 78.24 5.64C78.9867 5.82667 79.6133 6.01333 80.12 6.2C80.6533 6.38667 81 6.52 81.16 6.6ZM85.2256 10.88C85.2256 10.24 85.4523 9.70666 85.9056 9.28C86.3856 8.85333 86.8923 8.64 87.4256 8.64C87.959 8.64 88.4523 8.85333 88.9056 9.28C89.359 9.70666 89.5856 10.24 89.5856 10.88C89.5856 11.52 89.359 12.0533 88.9056 12.48C88.4523 12.88 87.959 13.08 87.4256 13.08C86.8923 13.08 86.3856 12.88 85.9056 12.48C85.4523 12.0533 85.2256 11.52 85.2256 10.88ZM89.0656 34H85.6656V17.28H89.0656V34ZM93.8688 17.28H96.8688C96.9221 18.1067 96.9621 18.8667 96.9888 19.56C97.0421 20.2267 97.0954 20.8933 97.1488 21.56C97.7621 20.12 98.5621 18.9867 99.5488 18.16C100.562 17.3067 101.909 16.8667 103.589 16.84C105.215 16.84 106.522 17.2533 107.509 18.08C108.495 18.9067 109.069 19.9867 109.229 21.32C109.895 19.96 110.709 18.88 111.669 18.08C112.655 17.28 113.975 16.8667 115.629 16.84C117.362 16.84 118.722 17.3067 119.709 18.24C120.722 19.1733 121.255 20.3733 121.309 21.84V34H117.869V23.4C117.815 22.5467 117.522 21.8267 116.989 21.24C116.482 20.6267 115.642 20.2933 114.469 20.24C112.869 20.24 111.615 20.76 110.709 21.8C109.802 22.8133 109.322 24.12 109.269 25.72V34H105.869V23.4C105.815 22.5467 105.509 21.8267 104.949 21.24C104.415 20.6267 103.589 20.2933 102.469 20.24C101.669 20.24 100.949 20.3867 100.309 20.68C99.6688 20.9467 99.1221 21.32 98.6688 21.8C98.2154 22.28 97.8688 22.8533 97.6288 23.52C97.3888 24.1867 97.2688 24.92 97.2688 25.72V34H93.8688V17.28ZM140.099 25.6C140.099 24.8267 139.979 24.12 139.739 23.48C139.499 22.8133 139.152 22.24 138.699 21.76C138.246 21.28 137.699 20.9067 137.059 20.64C136.419 20.3467 135.699 20.2 134.899 20.2C134.099 20.2 133.352 20.3467 132.659 20.64C131.992 20.9067 131.419 21.28 130.939 21.76C130.459 22.24 130.072 22.8133 129.779 23.48C129.512 24.12 129.379 24.8267 129.379 25.6C129.379 26.3733 129.512 27.0933 129.779 27.76C130.072 28.4267 130.459 29 130.939 29.48C131.419 29.96 131.992 30.3467 132.659 30.64C133.352 30.9067 134.099 31.04 134.899 31.04C135.699 31.04 136.419 30.9067 137.059 30.64C137.699 30.3467 138.246 29.96 138.699 29.48C139.152 28.9733 139.499 28.4 139.739 27.76C139.979 27.0933 140.099 26.3733 140.099 25.6ZM143.819 25.68C143.819 26.9333 143.606 28.0933 143.179 29.16C142.752 30.2267 142.152 31.1467 141.379 31.92C140.606 32.6933 139.672 33.3067 138.579 33.76C137.512 34.1867 136.339 34.4 135.059 34.4C134.392 34.4 133.752 34.32 133.139 34.16C132.552 34.0267 132.006 33.84 131.499 33.6C130.992 33.3333 130.552 33.0533 130.179 32.76C129.806 32.44 129.526 32.12 129.339 31.8C129.339 31.9333 129.339 32.08 129.339 32.24C129.366 32.3733 129.379 32.5067 129.379 32.64V42.04H125.939V17.28H129.259C129.259 17.6 129.272 18 129.299 18.48C129.352 18.9333 129.379 19.3467 129.379 19.72C129.592 19.4 129.872 19.08 130.219 18.76C130.592 18.4133 131.019 18.1067 131.499 17.84C132.006 17.5467 132.566 17.3067 133.179 17.12C133.792 16.9333 134.472 16.84 135.219 16.84C136.499 16.84 137.659 17.0533 138.699 17.48C139.766 17.88 140.672 18.4667 141.419 19.24C142.192 19.9867 142.779 20.9067 143.179 22C143.606 23.0933 143.819 24.32 143.819 25.68ZM150.981 34H147.581V2.92H150.981V34Z" fill="white"/>
</svg>
